name analog
datacolumns 19
datarows 66
range 0.547 0.5795
endheader
time	ground_force_vx	ground_force_vy	ground_force_vz	ground_force_px	ground_force_py	ground_force_pz	l_ground_force_vx	l_ground_force_vy	l_ground_force_vz	l_ground_force_px	l_ground_force_py	l_ground_force_pz	ground_torque_x	ground_torque_y	ground_torque_z	l_ground_torque_x	l_ground_torque_y	l_ground_torque_z
0.547	-0.0	-0.0	-0.0	15.165786743164062	14.363072395324709	-678.260986328125	-0.0	-0.0	-0.0	-34.876888275146484	16.104564666748047	74.65338134765625	-0.0	-0.0	-0.0	-0.0	-0.0	-0.0
0.5475	-0.0	-0.0	-0.0	14.311277389526367	13.624728202819824	-677.2467041015625	-0.0	-0.0	-0.0	-34.64575958251953	16.194534301757812	76.0044174194336	-0.0	-0.0	-0.0	-0.0	-0.0	-0.0
0.548	-0.0	-0.0	-0.0	14.031373977661133	12.401198387145996	-677.1029663085938	-0.0	-0.0	-0.0	-34.915958404541016	16.143657684326172	74.34858703613281	-0.0	-0.0	-0.0	-0.0	-0.0	-0.0
0.5485	-0.0	-0.0	-0.0	13.930192947387695	11.72802734375	-675.079833984375	-0.0	-0.0	-0.0	-34.581478118896484	16.039995193481445	75.24820709228516	-0.0	-0.0	-0.0	-0.0	-0.0	-0.0
0.549	-0.0	-0.0	-0.0	13.637401580810549	10.174301147460938	-674.4140014648438	-0.0	-0.0	-0.0	-34.91402816772461	16.208398818969727	76.05766296386719	-0.0	-0.0	-0.0	-0.0	-0.0	-0.0
0.5495	-0.0	-0.0	-0.0	13.484301567077637	8.52951431274414	-675.78662109375	-0.0	-0.0	-0.0	-34.84975051879883	16.169189453125	75.8056640625	-0.0	-0.0	-0.0	-0.0	-0.0	-0.0
0.55	-0.0	-0.0	-0.0	13.612446784973145	7.324367046356201	-674.57373046875	-0.0	-0.0	-0.0	-35.0928840637207	16.388519287109375	75.103759765625	-0.0	-0.0	-0.0	-0.0	-0.0	-0.0
0.5505	-0.0	-0.0	-0.0	12.693049430847168	5.487222671508789	-674.8272705078125	-0.0	-0.0	-0.0	-35.109962463378906	16.287553787231445	74.69757080078125	-0.0	-0.0	-0.0	-0.0	-0.0	-0.0
0.551	-0.0	-0.0	-0.0	12.01827907562256	4.228024005889893	-676.747314453125	-0.0	-0.0	-0.0	-34.91391372680664	16.028804779052734	76.6060791015625	-0.0	-0.0	-0.0	-0.0	-0.0	-0.0
0.5515	-0.0	-0.0	-0.0	11.36874008178711	3.172424793243408	-675.6882934570312	-0.0	-0.0	-0.0	-34.863731384277344	16.255855560302734	74.8936538696289	-0.0	-0.0	-0.0	-0.0	-0.0	-0.0
0.552	-0.0	-0.0	-0.0	10.616050720214844	1.8967808485031128	-675.8316650390625	-0.0	-0.0	-0.0	-34.65981674194336	16.64438247680664	75.74934387207031	-0.0	-0.0	-0.0	-0.0	-0.0	-0.0
0.5525	-0.0	-0.0	-0.0	9.866331100463867	1.6684508323669434	-673.3157958984375	-0.0	-0.0	-0.0	-34.68107986450195	16.205211639404297	75.34170532226562	-0.0	-0.0	-0.0	-0.0	-0.0	-0.0
0.553	-0.0	-0.0	-0.0	8.88520336151123	1.483554124832153	-674.2073364257812	-0.0	-0.0	-0.0	-35.186214447021484	16.21965789794922	76.31156921386719	-0.0	-0.0	-0.0	-0.0	-0.0	-0.0
0.5535	-0.0	-0.0	-0.0	6.872812747955322	1.6150227785110474	-671.45166015625	-0.0	-0.0	-0.0	-34.70988464355469	16.194534301757812	75.4547119140625	-0.0	-0.0	-0.0	-0.0	-0.0	-0.0
0.554	-0.0	-0.0	-0.0	4.603306293487549	1.4653213024139404	-670.2366943359375	-0.0	-0.0	-0.0	-34.77440643310547	15.989513397216797	75.59294891357422	-0.0	-0.0	-0.0	-0.0	-0.0	-0.0
0.5545	-0.0	-0.0	-0.0	1.8091427087783811	0.5491824746131897	-667.9619750976562	-0.0	-0.0	-0.0	-34.78459167480469	16.209373474121094	75.5125961303711	-0.0	-0.0	-0.0	-0.0	-0.0	-0.0
0.555	-0.0	-0.0	-0.0	0.0041572153568267	-0.6342723369598389	-667.4115600585938	-0.0	-0.0	-0.0	-34.77448272705078	16.1146183013916	76.76097869873047	-0.0	-0.0	-0.0	-0.0	-0.0	-0.0
0.5555	-0.0	-0.0	-0.0	-1.2841511964797974	-1.9360082149505613	-665.489501953125	-0.0	-0.0	-0.0	-34.824195861816406	16.039588928222656	75.24028015136719	-0.0	-0.0	-0.0	-0.0	-0.0	-0.0
0.556	-0.0	-0.0	-0.0	-2.180572271347046	-2.8375113010406494	-665.1361694335938	-0.0	-0.0	-0.0	-34.61063003540039	15.934478759765623	75.51362609863281	-0.0	-0.0	-0.0	-0.0	-0.0	-0.0
0.5565	-0.0	-0.0	-0.0	-3.1820027828216557	-4.327829837799072	-665.194580078125	-0.0	-0.0	-0.0	-34.913578033447266	16.204235076904297	74.88784790039062	-0.0	-0.0	-0.0	-0.0	-0.0	-0.0
0.557	-0.0	-0.0	-0.0	-5.258424758911133	-5.625096321105957	-667.5491943359375	-0.0	-0.0	-0.0	-35.01823043823242	16.1983585357666	75.2008285522461	-0.0	-0.0	-0.0	-0.0	-0.0	-0.0
0.5575	-0.0	-0.0	-0.0	-7.146633625030518	-6.021193981170654	-669.0800170898438	-0.0	-0.0	-0.0	-34.75932312011719	16.03945541381836	75.39468383789062	-0.0	-0.0	-0.0	-0.0	-0.0	-0.0
0.558	-0.0	-0.0	-0.0	-8.75227165222168	-6.90278959274292	-673.2588500976562	-0.0	-0.0	-0.0	-34.84870910644531	16.430299758911133	74.59551239013672	-0.0	-0.0	-0.0	-0.0	-0.0	-0.0
0.5585	-0.0	-0.0	-0.0	-10.293375968933104	-7.8776116371154785	-675.377685546875	-0.0	-0.0	-0.0	-34.89521408081055	16.120180130004883	75.708984375	-0.0	-0.0	-0.0	-0.0	-0.0	-0.0
0.559	-0.0	-0.0	-0.0	-11.548052787780762	-8.298535346984863	-682.5388793945312	-0.0	-0.0	-0.0	-34.953636169433594	16.268831253051758	75.70906066894531	-0.0	-0.0	-0.0	-0.0	-0.0	-0.0
0.5595	-0.0	-0.0	-0.0	-12.840225219726562	-9.180431365966797	-688.9324951171875	-0.0	-0.0	-0.0	-34.66070938110352	16.300291061401367	75.7092056274414	-0.0	-0.0	-0.0	-0.0	-0.0	-0.0
0.56	-0.0	-0.0	-0.0	-13.461671829223633	-9.251348495483398	-697.7250366210938	-0.0	-0.0	-0.0	-35.213348388671875	16.235124588012695	75.35840606689453	-0.0	-0.0	-0.0	-0.0	-0.0	-0.0
0.5605	-0.0	-0.0	-0.0	-14.387458801269531	-9.715213775634766	-706.7489013671875	-0.0	-0.0	-0.0	-34.994117736816406	16.1785888671875	75.74346160888672	-0.0	-0.0	-0.0	-0.0	-0.0	-0.0
0.561	-0.0	-0.0	-0.0	-14.51678466796875	-10.09624195098877	-713.7853393554688	-0.0	-0.0	-0.0	-35.10818862915039	16.30056381225586	77.17601776123047	-0.0	-0.0	-0.0	-0.0	-0.0	-0.0
0.5615	-0.0	-0.0	-0.0	-14.50108528137207	-9.10004711151123	-723.1879272460938	-0.0	-0.0	-0.0	-34.70151138305664	16.096139907836914	75.90161895751953	-0.0	-0.0	-0.0	-0.0	-0.0	-0.0
0.562	-0.0	-0.0	-0.0	-14.394482612609863	-7.876593589782715	-731.310546875	-0.0	-0.0	-0.0	-34.644866943359375	15.932971954345703	76.44245147705078	-0.0	-0.0	-0.0	-0.0	-0.0	-0.0
0.5625	-0.0	-0.0	-0.0	-13.486695289611816	-6.603025913238525	-741.8421630859375	-0.0	-0.0	-0.0	-34.652976989746094	16.32539176940918	75.48667907714844	-0.0	-0.0	-0.0	-0.0	-0.0	-0.0
0.5630000000000001	-0.0	-0.0	-0.0	-12.83793830871582	-4.610406398773193	-751.0537719726562	-0.0	-0.0	-0.0	-34.64479446411133	16.3499698638916	76.06103515625	-0.0	-0.0	-0.0	-0.0	-0.0	-0.0
0.5635	-0.0	-0.0	-0.0	-11.897696495056152	-3.216435432434082	-758.6964111328125	-0.0	-0.0	-0.0	-34.9295654296875	15.908121109008787	76.12547302246094	-0.0	-0.0	-0.0	-0.0	-0.0	-0.0
0.5640000000000001	-0.0	-0.0	-0.0	-11.321568489074709	-1.588029384613037	-768.7122802734375	-0.0	-0.0	-0.0	-34.66126251220703	16.145633697509766	75.16858673095703	-0.0	-0.0	-0.0	-0.0	-0.0	-0.0
0.5645	-0.0	-0.0	-0.0	-10.786456108093262	-0.0082679092884063	-775.8084106445312	-0.0	-0.0	-0.0	-34.56288146972656	16.138029098510742	75.87093353271484	-0.0	-0.0	-0.0	-0.0	-0.0	-0.0
0.5650000000000001	-0.0	-0.0	-0.0	-9.383490562438965	2.390148878097534	-780.0134887695312	-0.0	-0.0	-0.0	-34.75836944580078	16.383750915527344	76.25171661376953	-0.0	-0.0	-0.0	-0.0	-0.0	-0.0
0.5655	-0.0	-0.0	-0.0	-8.35373592376709	4.213359355926514	-786.6277465820312	-0.0	-0.0	-0.0	-35.19819641113281	16.104564666748047	74.9719467163086	-0.0	-0.0	-0.0	-0.0	-0.0	-0.0
0.5660000000000001	-0.0	-0.0	-0.0	-7.096059799194336	5.396210193634033	-791.728515625	-0.0	-0.0	-0.0	-34.89607238769531	16.243173599243164	74.68645477294922	-0.0	-0.0	-0.0	-0.0	-0.0	-0.0
0.5665	-0.0	-0.0	-0.0	-6.990094661712647	6.668116092681885	-798.7973022460938	-0.0	-0.0	-0.0	-34.751060485839844	15.990313529968262	76.73587799072266	-0.0	-0.0	-0.0	-0.0	-0.0	-0.0
0.5670000000000001	-0.0	-0.0	-0.0	-7.250213623046875	8.264986991882324	-803.8670043945312	-0.0	-0.0	-0.0	-34.77521514892578	16.01459503173828	75.36005401611328	-0.0	-0.0	-0.0	-0.0	-0.0	-0.0
0.5675	-0.0	-0.0	-0.0	-7.1031670570373535	8.717957496643066	-808.591064453125	-0.0	-0.0	-0.0	-34.6445198059082	16.36752700805664	74.91473388671875	-0.0	-0.0	-0.0	-0.0	-0.0	-0.0
0.5680000000000001	-0.0	-0.0	-0.0	-7.401796340942383	8.823909759521484	-812.1513671875	-0.0	-0.0	-0.0	-34.78204727172852	16.291297912597656	75.0093994140625	-0.0	-0.0	-0.0	-0.0	-0.0	-0.0
0.5685	-0.0	-0.0	-0.0	-8.286643028259277	8.765888214111328	-816.1035766601562	-0.0	-0.0	-0.0	-34.799346923828125	16.242881774902344	77.18324279785156	-0.0	-0.0	-0.0	-0.0	-0.0	-0.0
0.5690000000000001	-0.0	-0.0	-0.0	-8.879903793334961	8.686758995056152	-818.005126953125	-0.0	-0.0	-0.0	-34.98479461669922	15.823663711547852	75.61737060546875	-0.0	-0.0	-0.0	-0.0	-0.0	-0.0
0.5695	-0.0	-0.0	-0.0	-10.176764488220217	7.8090500831604	-820.7219848632812	-0.0	-0.0	-0.0	-34.75780487060547	16.05636978149414	74.14490509033203	-0.0	-0.0	-0.0	-0.0	-0.0	-0.0
0.5700000000000001	-0.0	-0.0	-0.0	-10.996874809265137	6.982843399047852	-823.0042114257812	-0.0	-0.0	-0.0	-35.168460845947266	16.200904846191406	75.61775970458984	-0.0	-0.0	-0.0	-0.0	-0.0	-0.0
0.5705	-0.0	-0.0	-0.0	-12.156573295593262	5.852122783660889	-824.7179565429688	-0.0	-0.0	-0.0	-34.77543640136719	16.22480010986328	75.96900939941406	-0.0	-0.0	-0.0	-0.0	-0.0	-0.0
0.5710000000000001	-0.0	-0.0	-0.0	-12.139045715332031	4.973827838897705	-824.0888061523438	-0.0	-0.0	-0.0	-34.84105682373047	16.332521438598633	75.64202117919922	-0.0	-0.0	-0.0	-0.0	-0.0	-0.0
0.5715	-0.0	-0.0	-0.0	-12.174065589904783	4.248060703277588	-822.650634765625	-0.0	-0.0	-0.0	-34.90670394897461	16.260515213012695	74.70594787597656	-0.0	-0.0	-0.0	-0.0	-0.0	-0.0
0.5720000000000001	-0.0	-0.0	-0.0	-12.07964324951172	3.220158338546753	-821.2377319335938	-0.0	-0.0	-0.0	-34.81735610961914	16.416540145874023	76.83575439453125	-0.0	-0.0	-0.0	-0.0	-0.0	-0.0
0.5725	-0.0	-0.0	-0.0	-12.941560745239258	2.1153392791748047	-820.8843994140625	-0.0	-0.0	-0.0	-34.918235778808594	16.1580753326416	75.03265380859375	-0.0	-0.0	-0.0	-0.0	-0.0	-0.0
0.5730000000000001	-0.0	-0.0	-0.0	-13.476693153381348	1.509315848350525	-818.082275390625	-0.0	-0.0	-0.0	-34.70988464355469	16.038475036621094	76.83686065673828	-0.0	-0.0	-0.0	-0.0	-0.0	-0.0
0.5735	-0.0	-0.0	-0.0	-14.89234447479248	0.9092324376106262	-815.5864868164062	-0.0	-0.0	-0.0	-34.95454025268555	16.128421783447266	74.51619720458984	-0.0	-0.0	-0.0	-0.0	-0.0	-0.0
0.5740000000000001	-0.0	-0.0	-0.0	-15.344207763671877	0.3147839307785034	-809.841552734375	-0.0	-0.0	-0.0	-34.9308967590332	16.207744598388672	76.41465759277344	-0.0	-0.0	-0.0	-0.0	-0.0	-0.0
0.5745	-0.0	-0.0	-0.0	-15.677370071411133	0.4038390517234802	-804.9189453125	-0.0	-0.0	-0.0	-34.817867279052734	16.128345489501953	77.26203918457031	-0.0	-0.0	-0.0	-0.0	-0.0	-0.0
0.5750000000000001	-0.0	-0.0	-0.0	-16.37284278869629	0.469290018081665	-798.6334838867188	-0.0	-0.0	-0.0	-34.93101501464844	15.995903968811035	76.08370971679688	-0.0	-0.0	-0.0	-0.0	-0.0	-0.0
0.5755	-0.0	-0.0	-0.0	-16.141826629638672	1.0198479890823364	-790.6554565429688	-0.0	-0.0	-0.0	-34.81804275512695	16.142173767089844	75.4547119140625	-0.0	-0.0	-0.0	-0.0	-0.0	-0.0
0.5760000000000001	-0.0	-0.0	-0.0	-16.273229598999023	2.0264365673065186	-781.9201049804688	-0.0	-0.0	-0.0	-34.83237075805664	16.45014762878418	76.7661361694336	-0.0	-0.0	-0.0	-0.0	-0.0	-0.0
0.5765	-0.0	-0.0	-0.0	-15.194400787353516	2.862262010574341	-773.1842041015625	-0.0	-0.0	-0.0	-34.93120193481445	16.22288703918457	77.17289733886719	-0.0	-0.0	-0.0	-0.0	-0.0	-0.0
0.577	-0.0	-0.0	-0.0	-14.667780876159668	3.171470165252685	-762.1429443359375	-0.0	-0.0	-0.0	-34.29059600830078	16.327220916748047	75.621337890625	-0.0	-0.0	-0.0	-0.0	-0.0	-0.0
0.5775	-0.0	-0.0	-0.0	-14.4990816116333	4.559632301330566	-753.57421875	-0.0	-0.0	-0.0	-34.9269905090332	16.156126022338867	75.39690399169922	-0.0	-0.0	-0.0	-0.0	-0.0	-0.0
0.578	-0.0	-0.0	-0.0	-14.25959014892578	4.362696647644043	-746.9569702148438	-0.0	-0.0	-0.0	-34.75676727294922	16.128141403198242	75.82257080078125	-0.0	-0.0	-0.0	-0.0	-0.0	-0.0
0.5785	-0.0	-0.0	-0.0	-13.339244842529297	3.461752414703369	-742.47705078125	-0.0	-0.0	-0.0	-34.7332878112793	15.928807258605955	77.80325317382812	-0.0	-0.0	-0.0	-0.0	-0.0	-0.0
0.579	-0.0	-0.0	-0.0	-13.62580680847168	2.444498062133789	-740.768798828125	-0.0	-0.0	-0.0	-34.550331115722656	15.995124816894531	74.6768569946289	-0.0	-0.0	-0.0	-0.0	-0.0	-0.0
0.5795	-0.0	-0.0	-0.0	-13.55999755859375	1.3560011386871338	-741.4172973632812	-0.0	-0.0	-0.0	-34.7565803527832	15.819082260131836	75.01216888427734	-0.0	-0.0	-0.0	-0.0	-0.0	-0.0
